<svg xmlns="http://www.w3.org/2000/svg" version="1.1" xmlns:xlink="http://www.w3.org/1999/xlink" xmlns:svgjs="http://svgjs.com/svgjs" id="Pattern1650SvgRootPreview" width="100%" height="100%"><defs><pattern x="0" y="0" width="1" height="1" patternUnits="userSpaceOnUse" id="Pattern1650Layer1" patternTransform="matrix(3.283333333333333,0,0,3.283333333333333,0,0)"><g id="PatternRootContent1"><g id="Pattern1650Layer1background"><rect width="1" height="1" id="Pattern1650Background1" class="color_1 fill_color_1" fill="#f8f8f5"></rect></g></g></pattern><pattern x="0" y="0" width="60" height="60" patternUnits="userSpaceOnUse" id="Pattern1650Layer2" patternTransform="matrix(3.283333333333333,0,0,3.283333333333333,0,0)"><g id="PatternRootContent2"><g id="Pattern1650Layer2Element1"><use xlink:href="#Pattern1650Element1" x="36" y="-39" transform="translate(54, -21) scale(1) translate(-54, 21) rotate(-45, 60, -15)"></use><use xlink:href="#Pattern1650Element1" x="-24" y="-39" transform="translate(-6, -21) scale(1) translate(6, 21) rotate(-45, 0, -15)"></use><use xlink:href="#Pattern1650Element1" x="6" y="-9" transform="translate(24, 9) scale(1) translate(-24, -9) rotate(45, 30, 15)"></use><use xlink:href="#Pattern1650Element1" x="-54" y="-9" transform="translate(-36, 9) scale(1) translate(36, -9) rotate(45, -30, 15)"></use><use xlink:href="#Pattern1650Element1" x="66" y="-9" transform="translate(84, 9) scale(1) translate(-84, -9) rotate(45, 90, 15)"></use><use xlink:href="#Pattern1650Element1" x="36" y="21" transform="translate(54, 39) scale(1) translate(-54, -39) rotate(-45, 60, 45)"></use><use xlink:href="#Pattern1650Element1" x="-24" y="21" transform="translate(-6, 39) scale(1) translate(6, -39) rotate(-45, 0, 45)"></use><use xlink:href="#Pattern1650Element1" x="6" y="51" transform="translate(24, 69) scale(1) translate(-24, -69) rotate(45, 30, 75)"></use><use xlink:href="#Pattern1650Element1" x="6" y="51" transform="translate(24, 69) scale(1) translate(-24, -69) rotate(45, 30, 75)"></use></g></g></pattern><symbol id="Pattern1650Element1"><path d="M6 26h4v-4H6v4zm0 8h4v-4H6v4zm4 8v-4H6c0 2.21 1.79 4 4 4zM6 18h4v-4H6v4zm24 24h4v-4h-4v4zm8-36H18c-2.21 0-4 1.79-4 4v20c0 2.21 1.79 4 4 4h20c2.21 0 4-1.79 4-4V10c0-2.21-1.79-4-4-4zm0 24H18V10h20v20zM22 42h4v-4h-4v4zm-8 0h4v-4h-4v4z" class="color_2 fill_color_2" fill="#76cbdc"></path></symbol></defs><rect width="100%" height="100%" id="Pattern1650RctLayer1" fill="url(#Pattern1650Layer1)"></rect><rect width="100%" height="100%" id="Pattern1650RctLayer2" fill="url(#Pattern1650Layer2)"></rect></svg>